<?xml version="1.0" encoding="UTF-8"?>
<svg xmlns="http://www.w3.org/2000/svg" xmlns:xlink="http://www.w3.org/1999/xlink" width="45px" height="px" viewBox="0 0 45 45" version="1.1">
<g id="surface1">
<path style=" stroke:none;fill-rule:nonzero;fill:rgb(0%,0%,0%);fill-opacity:1;" d="M 43.992188 3.085938 L 41.894531 0.988281 C 41.257812 0.351562 40.410156 0 39.507812 0 C 38.605469 0 37.753906 0.351562 37.117188 0.988281 C 36.597656 1.511719 36.269531 2.171875 36.167969 2.886719 C 32.769531 5.449219 29.628906 8.121094 25.289062 12.457031 C 19.882812 17.863281 15.167969 23.3125 12.011719 27.800781 C 11.714844 28.21875 11.414062 28.65625 11.121094 29.097656 L 10.964844 28.941406 C 10.824219 28.800781 10.65625 28.726562 10.480469 28.726562 C 10.25 28.726562 10.039062 28.859375 9.914062 29.085938 L 7.964844 32.554688 L 7.84375 32.433594 C 7.722656 32.3125 7.53125 32.242188 7.339844 32.242188 C 7.238281 32.242188 7.136719 32.261719 7.050781 32.300781 L 7.03125 32.3125 C 7.003906 32.332031 4.113281 34.210938 2.613281 34.367188 C 2.316406 34.398438 2.09375 34.761719 2.015625 35 L 2.007812 35.039062 C 2.003906 35.109375 1.566406 41.964844 0.0898438 44.011719 C -0.0117188 44.15625 -0.0078125 44.363281 0.109375 44.628906 L 0.121094 44.65625 L 0.34375 44.894531 L 0.371094 44.910156 C 0.464844 44.949219 0.605469 45 0.746094 45 C 0.835938 45 0.914062 44.980469 0.984375 44.941406 C 3.238281 43.644531 9.910156 43.011719 9.976562 43.003906 L 10.011719 42.996094 C 10.234375 42.925781 10.601562 42.703125 10.644531 42.402344 C 10.84375 41 12.683594 38.007812 12.703125 37.976562 L 12.710938 37.960938 C 12.828125 37.707031 12.769531 37.363281 12.578125 37.171875 L 12.457031 37.046875 L 15.925781 35.097656 C 16.121094 34.988281 16.25 34.808594 16.277344 34.609375 C 16.304688 34.410156 16.230469 34.207031 16.070312 34.046875 L 15.910156 33.886719 C 20.421875 30.90625 26.441406 25.832031 32.550781 19.722656 C 36.898438 15.378906 39.5625 12.238281 42.148438 8.808594 C 42.84375 8.699219 43.484375 8.375 43.992188 7.867188 C 45.3125 6.550781 45.3125 4.40625 43.992188 3.085938 Z M 7.480469 40.117188 C 6.765625 40.835938 5.605469 40.835938 4.890625 40.117188 C 4.175781 39.402344 4.175781 38.246094 4.890625 37.527344 C 5.605469 36.8125 6.765625 36.8125 7.480469 37.527344 C 8.195312 38.246094 8.195312 39.402344 7.480469 40.117188 Z M 7.480469 40.117188 "/>
</g>
</svg>
