<?xml version="1.0" encoding="UTF-8"?>
<svg xmlns="http://www.w3.org/2000/svg" xmlns:xlink="http://www.w3.org/1999/xlink" width="40px" height="40px" viewBox="0 0 40 40" version="1.1">
<g id="surface1">
<path style=" stroke:none;fill-rule:nonzero;fill:rgb(0%,0%,0%);fill-opacity:1;" d="M 39.457031 0.0664062 C 39.339844 0.132812 36.546875 2.964844 33.28125 6.328125 C 25.972656 13.863281 20.914062 19.277344 18.183594 22.5 C 17.792969 22.960938 17.054688 23.882812 17.054688 23.90625 C 17.054688 23.917969 17.257812 23.980469 17.515625 24.050781 C 17.769531 24.117188 18.332031 24.300781 18.769531 24.460938 C 19.917969 24.878906 20.632812 25.210938 21.726562 25.851562 C 22.019531 26.023438 22.265625 26.15625 22.269531 26.148438 C 22.308594 26.117188 22.726562 25.597656 23.097656 25.125 C 25.914062 21.542969 31.742188 13.019531 38.992188 1.875 C 39.523438 1.058594 39.964844 0.335938 39.980469 0.273438 C 39.996094 0.179688 39.984375 0.148438 39.894531 0.0820312 C 39.753906 -0.015625 39.613281 -0.0234375 39.457031 0.0664062 Z M 39.457031 0.0664062 "/>
<path style=" stroke:none;fill-rule:nonzero;fill:rgb(0%,0%,0%);fill-opacity:1;" d="M 16.304688 24.992188 C 15.644531 26.144531 14.980469 27.222656 13.628906 29.328125 C 12.496094 31.097656 11.867188 32.117188 11.90625 32.140625 C 11.914062 32.144531 12.042969 32.164062 12.199219 32.183594 C 13.035156 32.304688 14.050781 32.742188 14.609375 33.230469 C 14.730469 33.335938 14.84375 33.425781 14.867188 33.429688 C 14.917969 33.445312 15.722656 32.675781 17.359375 31.03125 C 19.078125 29.304688 20.117188 28.289062 20.960938 27.5 C 21.71875 26.796875 21.695312 26.824219 21.582031 26.757812 C 21.527344 26.726562 21.296875 26.589844 21.066406 26.449219 C 19.757812 25.675781 18.265625 25.046875 16.929688 24.714844 C 16.726562 24.664062 16.554688 24.625 16.542969 24.625 C 16.527344 24.625 16.421875 24.789062 16.304688 24.992188 Z M 16.304688 24.992188 "/>
<path style=" stroke:none;fill-rule:nonzero;fill:rgb(0%,0%,0%);fill-opacity:1;" d="M 10.128906 32.515625 C 8.96875 32.652344 7.941406 33.109375 7.207031 33.8125 C 6.941406 34.066406 6.605469 34.566406 6.492188 34.875 C 6.09375 35.9375 5.898438 36.363281 5.546875 36.886719 C 5.214844 37.378906 4.839844 37.757812 4.359375 38.113281 C 3.457031 38.773438 2.382812 39.164062 0.707031 39.433594 C 0.285156 39.507812 0.132812 39.542969 0.078125 39.59375 C -0.0351562 39.695312 -0.0195312 39.832031 0.113281 39.929688 L 0.222656 40.007812 L 2.292969 39.992188 C 3.429688 39.976562 4.699219 39.957031 5.113281 39.9375 C 9.910156 39.742188 12.664062 39.136719 14.210938 37.953125 C 14.96875 37.371094 15.320312 36.753906 15.363281 35.921875 C 15.414062 35.023438 15.085938 34.324219 14.300781 33.632812 C 13.757812 33.152344 12.832031 32.734375 11.964844 32.574219 C 11.417969 32.476562 10.660156 32.449219 10.128906 32.515625 Z M 10.128906 32.515625 "/>
</g>
</svg>
