<?xml version="1.0" encoding="UTF-8"?>
<svg xmlns="http://www.w3.org/2000/svg" xmlns:xlink="http://www.w3.org/1999/xlink" width="40px" height="40px" viewBox="0 0 40 40" version="1.1">
<g id="surface1">
<path style=" stroke:none;fill-rule:nonzero;fill:rgb(0%,0%,0%);fill-opacity:1;" d="M 0 11.25 L 0 8.519531 C 0.0585938 7.527344 0.507812 6.695312 1.339844 6.019531 C 2.171875 5.339844 3.15625 5.003906 4.285156 5.003906 L 8.570312 5.003906 L 8.570312 3.753906 C 8.570312 2.710938 8.988281 1.824219 9.820312 1.097656 C 10.652344 0.367188 11.664062 0.00390625 12.855469 0.00390625 L 27.140625 0.00390625 C 28.332031 0.00390625 29.34375 0.367188 30.175781 1.097656 C 31.011719 1.824219 31.425781 2.710938 31.425781 3.753906 L 31.425781 5.003906 L 35.710938 5.003906 C 36.84375 5.003906 37.824219 5.339844 38.660156 6.019531 C 39.492188 6.695312 39.9375 7.527344 39.996094 8.519531 L 39.996094 11.25 C 39.996094 11.929688 39.714844 12.515625 39.148438 13.007812 C 38.582031 13.503906 37.914062 13.75 37.140625 13.75 L 37.140625 35 C 37.140625 36.40625 36.589844 37.589844 35.488281 38.554688 C 34.386719 39.519531 33.035156 40 31.425781 40 L 8.570312 40 C 6.964844 40 5.609375 39.519531 4.507812 38.554688 C 3.40625 37.589844 2.855469 36.40625 2.855469 35 L 2.855469 13.75 C 2.082031 13.75 1.414062 13.503906 0.847656 13.007812 C 0.28125 12.515625 0 11.929688 0 11.25 Z M 2.855469 11.25 L 37.140625 11.25 L 37.140625 8.753906 C 37.140625 8.386719 37.007812 8.089844 36.738281 7.855469 C 36.472656 7.621094 36.128906 7.503906 35.710938 7.503906 L 4.285156 7.503906 C 3.867188 7.503906 3.527344 7.621094 3.257812 7.855469 C 2.992188 8.089844 2.855469 8.386719 2.855469 8.753906 Z M 5.714844 35 C 5.714844 35.675781 5.996094 36.261719 6.5625 36.757812 C 7.128906 37.253906 7.796875 37.5 8.570312 37.5 L 31.425781 37.5 C 32.199219 37.5 32.871094 37.253906 33.433594 36.757812 C 34 36.261719 34.285156 35.675781 34.285156 35 L 34.285156 13.75 L 5.714844 13.75 Z M 8.570312 33.75 L 8.570312 17.5 C 8.570312 17.136719 8.703125 16.835938 8.972656 16.601562 C 9.242188 16.367188 9.582031 16.25 10 16.25 L 12.855469 16.25 C 13.273438 16.25 13.617188 16.367188 13.882812 16.601562 C 14.152344 16.835938 14.285156 17.136719 14.285156 17.5 L 14.285156 33.75 C 14.285156 34.113281 14.152344 34.414062 13.882812 34.648438 C 13.617188 34.882812 13.273438 35 12.855469 35 L 10 35 C 9.582031 35 9.242188 34.882812 8.972656 34.648438 C 8.703125 34.414062 8.570312 34.113281 8.570312 33.75 Z M 10 33.75 L 12.855469 33.75 L 12.855469 17.5 L 10 17.5 Z M 11.429688 5.003906 L 28.570312 5.003906 L 28.570312 3.753906 C 28.570312 3.386719 28.4375 3.089844 28.167969 2.855469 C 27.898438 2.621094 27.558594 2.503906 27.140625 2.503906 L 12.855469 2.503906 C 12.441406 2.503906 12.097656 2.621094 11.828125 2.855469 C 11.5625 3.089844 11.429688 3.386719 11.429688 3.753906 Z M 17.140625 33.75 L 17.140625 17.5 C 17.140625 17.136719 17.277344 16.835938 17.542969 16.601562 C 17.8125 16.367188 18.152344 16.25 18.570312 16.25 L 21.425781 16.25 C 21.84375 16.25 22.1875 16.367188 22.453125 16.601562 C 22.722656 16.835938 22.855469 17.136719 22.855469 17.5 L 22.855469 33.75 C 22.855469 34.113281 22.722656 34.414062 22.453125 34.648438 C 22.1875 34.882812 21.84375 35 21.425781 35 L 18.570312 35 C 18.152344 35 17.8125 34.882812 17.542969 34.648438 C 17.277344 34.414062 17.140625 34.113281 17.140625 33.75 Z M 18.570312 33.75 L 21.425781 33.75 L 21.425781 17.5 L 18.570312 17.5 Z M 25.710938 33.75 L 25.710938 17.5 C 25.710938 17.136719 25.847656 16.835938 26.113281 16.601562 C 26.382812 16.367188 26.722656 16.25 27.140625 16.25 L 30 16.25 C 30.414062 16.25 30.757812 16.367188 31.023438 16.601562 C 31.292969 16.835938 31.425781 17.136719 31.425781 17.5 L 31.425781 33.75 C 31.425781 34.113281 31.292969 34.414062 31.023438 34.648438 C 30.757812 34.882812 30.414062 35 30 35 L 27.140625 35 C 26.722656 35 26.382812 34.882812 26.113281 34.648438 C 25.847656 34.414062 25.710938 34.113281 25.710938 33.75 Z M 27.140625 33.75 L 30 33.75 L 30 17.5 L 27.140625 17.5 Z M 27.140625 33.75 "/>
</g>
</svg>
