<?xml version="1.0" encoding="UTF-8"?>
<svg xmlns="http://www.w3.org/2000/svg" xmlns:xlink="http://www.w3.org/1999/xlink" width="40px" height="40px" viewBox="0 0 40 40" version="1.1">
<g id="surface1">
<path style=" stroke:none;fill-rule:nonzero;fill:rgb(0%,0%,0%);fill-opacity:1;" d="M 27.761719 29.238281 C 27.769531 29.226562 27.78125 29.21875 27.789062 29.207031 L 38.59375 18.398438 C 39.5 17.492188 40 16.285156 40 15 C 40 13.714844 39.5 12.511719 38.59375 11.605469 L 30.441406 3.453125 C 29.539062 2.546875 28.332031 2.050781 27.046875 2.050781 C 25.761719 2.050781 24.554688 2.546875 23.652344 3.453125 L 1.40625 25.695312 C 0.496094 26.601562 0 27.808594 0 29.097656 C 0 30.382812 0.5 31.585938 1.40625 32.488281 L 6.621094 37.707031 C 6.625 37.710938 6.632812 37.714844 6.636719 37.71875 C 6.652344 37.734375 6.664062 37.746094 6.679688 37.761719 C 6.6875 37.765625 6.695312 37.769531 6.703125 37.777344 C 6.714844 37.789062 6.730469 37.800781 6.746094 37.808594 C 6.753906 37.8125 6.757812 37.816406 6.765625 37.820312 C 6.78125 37.832031 6.796875 37.84375 6.816406 37.851562 C 6.820312 37.855469 6.824219 37.855469 6.828125 37.859375 C 6.847656 37.867188 6.871094 37.878906 6.890625 37.886719 C 6.894531 37.886719 6.894531 37.886719 6.898438 37.890625 C 6.921875 37.898438 6.945312 37.90625 6.96875 37.914062 C 6.96875 37.914062 6.972656 37.914062 6.976562 37.917969 C 7 37.921875 7.023438 37.929688 7.046875 37.933594 C 7.050781 37.933594 7.058594 37.9375 7.066406 37.9375 C 7.085938 37.941406 7.105469 37.945312 7.125 37.945312 C 7.152344 37.949219 7.183594 37.949219 7.210938 37.949219 L 31.976562 37.949219 C 32.4375 37.949219 32.8125 37.578125 32.8125 37.117188 C 32.8125 36.65625 32.4375 36.285156 31.976562 36.285156 L 20.714844 36.285156 L 27.730469 29.265625 C 27.742188 29.253906 27.753906 29.246094 27.761719 29.238281 Z M 18.355469 36.285156 L 7.554688 36.285156 L 2.582031 31.308594 C 1.992188 30.722656 1.667969 29.9375 1.667969 29.097656 C 1.664062 28.253906 1.992188 27.464844 2.582031 26.871094 L 13.402344 16.054688 L 25.992188 28.648438 Z M 14.582031 14.878906 L 24.828125 4.628906 C 25.417969 4.039062 26.207031 3.714844 27.046875 3.714844 C 27.886719 3.714844 28.675781 4.039062 29.261719 4.628906 L 37.417969 12.785156 C 38.007812 13.375 38.332031 14.160156 38.332031 15 C 38.332031 15.839844 38.007812 16.628906 37.417969 17.21875 L 27.171875 27.46875 Z M 14.582031 14.878906 "/>
</g>
</svg>
