<?xml version="1.0" encoding="UTF-8"?>
<svg xmlns="http://www.w3.org/2000/svg" xmlns:xlink="http://www.w3.org/1999/xlink" width="45px" height="px" viewBox="0 0 45 45" version="1.1">
<g id="surface1">
<path style=" stroke:none;fill-rule:nonzero;fill:rgb(0%,0%,0%);fill-opacity:1;" d="M 44.378906 14.488281 L 30.511719 0.621094 C 30.113281 0.222656 29.570312 0 29.007812 0 C 28.445312 0 27.902344 0.222656 27.503906 0.621094 L 23.875 4.25 C 23.75 4.226562 23.621094 4.214844 23.488281 4.214844 C 22.925781 4.214844 22.382812 4.4375 21.984375 4.835938 L 5 21.820312 C 4.484375 22.335938 4.289062 23.046875 4.414062 23.714844 L 0.621094 27.503906 C -0.207031 28.335938 -0.207031 29.679688 0.621094 30.511719 L 14.488281 44.378906 C 14.886719 44.777344 15.429688 45 15.992188 45 C 16.554688 45 17.097656 44.777344 17.496094 44.378906 L 21.285156 40.585938 C 21.414062 40.609375 21.542969 40.621094 21.675781 40.621094 C 22.238281 40.621094 22.78125 40.398438 23.179688 40 L 40.164062 23.015625 C 40.675781 22.5 40.871094 21.789062 40.75 21.125 L 44.378906 17.496094 C 45.207031 16.664062 45.207031 15.320312 44.378906 14.488281 Z M 15.992188 39.867188 L 5.128906 29.007812 L 7.15625 26.984375 L 18.015625 37.84375 Z M 21.675781 35.492188 L 9.507812 23.324219 L 23.488281 9.34375 L 35.65625 21.511719 Z M 38.007812 17.855469 L 27.144531 6.992188 L 29.007812 5.128906 L 39.871094 15.992188 Z M 38.007812 17.855469 "/>
</g>
</svg>
